HIERARCHY
ROOT Hips
{
	OFFSET -0.001795 -0.223333 0.028219
	CHANNELS 6 Xposition Yposition Zposition Zrotation Yrotation Xrotation 
	JOINT LeftUpLeg
	{
		OFFSET 0.069520 -0.091406 -0.006815
		CHANNELS 3 Zrotation Yrotation Xrotation
		JOINT LeftLeg
		{
			OFFSET 0.034277 -0.375199 -0.004496
			CHANNELS 3 Zrotation Yrotation Xrotation
			JOINT LeftFoot
			{
				OFFSET -0.013596 -0.397961 -0.043693
				CHANNELS 3 Zrotation Yrotation Xrotation
				JOINT LeftToe
				{
					OFFSET 0.026358 -0.055791 0.119288
					CHANNELS 3 Zrotation Yrotation Xrotation
					End Site
					{
						OFFSET 0.000000 0.000000 0.000000
					}
				}
			}
		}
	}
	JOINT RightUpLeg
	{
		OFFSET -0.067670 -0.090522 -0.004320
		CHANNELS 3 Zrotation Yrotation Xrotation
		JOINT RightLeg
		{
			OFFSET -0.038290 -0.382569 -0.008850
			CHANNELS 3 Zrotation Yrotation Xrotation
			JOINT RightFoot
			{
				OFFSET 0.015774 -0.398415 -0.042312
				CHANNELS 3 Zrotation Yrotation Xrotation
				JOINT RightToe
				{
					OFFSET -0.025372 -0.048144 0.123348
					CHANNELS 3 Zrotation Yrotation Xrotation
					End Site
					{
						OFFSET 0.000000 0.000000 0.000000
					}
				}
			}
		}
	}
	JOINT Spine
	{
		OFFSET -0.002533 0.108963 -0.026696
		CHANNELS 3 Zrotation Yrotation Xrotation
		JOINT Spine1
		{
			OFFSET 0.005487 0.135180 0.001092
			CHANNELS 3 Zrotation Yrotation Xrotation
			JOINT Spine2
			{
				OFFSET 0.001457 0.052922 0.025425
				CHANNELS 3 Zrotation Yrotation Xrotation
				JOINT Neck
				{
					OFFSET -0.002778 0.213870 -0.042857
					CHANNELS 3 Zrotation Yrotation Xrotation
					JOINT Head
					{
						OFFSET 0.005152 0.064970 0.051349
						CHANNELS 3 Zrotation Yrotation Xrotation
						End Site
						{
							OFFSET 0.000000 0.000000 0.000000
						}
					}
				}
				JOINT LeftShoulder
				{
					OFFSET 0.078845 0.121749 -0.034090
					CHANNELS 3 Zrotation Yrotation Xrotation
					JOINT LeftArm
					{
						OFFSET 0.090977 0.030469 -0.008868
						CHANNELS 3 Zrotation Yrotation Xrotation
						JOINT LeftForeArm
						{
							OFFSET 0.259612 -0.012772 -0.027456
							CHANNELS 3 Zrotation Yrotation Xrotation
							JOINT LeftHand
							{
								OFFSET 0.249234 0.008986 -0.001171
								CHANNELS 3 Zrotation Yrotation Xrotation
								End Site
								{
									OFFSET 0.000000 0.000000 0.000000
								}
							}
						}
					}
				}
				JOINT RightShoulder
				{
					OFFSET -0.081759 0.118833 -0.038615
					CHANNELS 3 Zrotation Yrotation Xrotation
					JOINT RightArm
					{
						OFFSET -0.096012 0.032551 -0.009143
						CHANNELS 3 Zrotation Yrotation Xrotation
						JOINT RightForeArm
						{
							OFFSET -0.253742 -0.013329 -0.021401
							CHANNELS 3 Zrotation Yrotation Xrotation
							JOINT RightHand
							{
								OFFSET -0.255298 0.007772 -0.005559
								CHANNELS 3 Zrotation Yrotation Xrotation
								End Site
								{
									OFFSET 0.000000 0.000000 0.000000
								}
							}
						}
					}
				}
			}
		}
	}
}
MOTION
Frames: 15
Frame Time: 0.050000
0.000000 0.960184 0.000000 -1.560176 4.498953 2.307543 -1.566745 0.120886 0.804020 5.425667 -0.287195 -3.322995 -2.230184 1.341979 11.493026 0.000000 0.000000 0.000000 0.928421 0.313515 -3.003889 -2.832082 0.440785 1.952165 -4.099659 -13.205386 21.538128 0.000000 0.000000 0.000000 -0.799844 0.060074 -1.549759 0.485523 -0.023055 -4.583287 0.097833 -1.445634 -0.811040 1.722636 -0.653316 -6.547859 0.000000 0.000000 0.000000 20.589557 -13.267093 4.098280 17.190810 -38.316746 -6.598047 37.901881 -12.513832 -3.723610 0.000000 0.000000 0.000000 -25.950888 13.553352 3.594520 -19.484613 32.874345 -5.956063 -27.963239 0.634105 0.554341 0.000000 0.000000 0.000000 
0.000922 0.960459 -0.000792 -1.535399 4.756000 3.107209 -1.360202 0.055072 0.164843 4.944104 -0.205372 -3.883391 -2.435060 1.141259 11.755978 0.000000 0.000000 0.000000 0.704007 0.327203 -3.144381 -2.791708 0.373647 0.941718 -3.614246 -12.357013 21.104552 0.000000 0.000000 0.000000 -1.864608 0.073193 -1.918160 1.072380 -0.382839 -2.422143 0.431395 -0.907115 -3.777920 1.639710 -0.508741 -6.929922 0.000000 0.000000 0.000000 19.647912 -12.566705 4.228447 19.602609 -37.802470 -7.172647 40.608473 -11.931089 -3.840621 0.000000 0.000000 0.000000 -25.787999 13.678733 3.721785 -22.680389 30.427686 -5.936394 -24.900212 4.712632 -0.223154 0.000000 0.000000 0.000000 
0.001987 0.961132 -0.001931 -1.520957 4.193944 2.991920 -0.675430 0.051887 0.350701 3.483860 -0.099935 -3.987278 -2.264474 1.443085 11.982756 0.000000 0.000000 0.000000 0.263465 0.345510 -3.355957 -2.620798 0.393216 1.639483 -2.525913 -10.640092 20.399658 0.000000 0.000000 0.000000 -0.541039 0.049124 -1.193792 0.175918 0.190381 -6.836521 -0.470263 -0.386703 0.716069 2.297825 -0.904887 -7.558881 0.000000 0.000000 0.000000 20.069186 -12.504825 4.101379 21.205950 -36.940508 -7.469276 40.846130 -13.730860 -4.637819 0.000000 0.000000 0.000000 -26.318594 13.483159 3.263415 -21.643377 30.652537 -5.640559 -27.707957 5.960065 -0.542474 0.000000 0.000000 0.000000 
0.002916 0.961740 -0.002893 -1.808755 5.921257 3.209584 -0.499174 -0.031903 -0.536145 3.902075 -0.159440 -3.380393 -3.058819 0.311058 11.875575 0.000000 0.000000 0.000000 0.578717 0.359705 -3.431355 -2.846111 0.413097 1.403107 -2.739086 -10.819246 21.610482 0.000000 0.000000 0.000000 -0.617910 0.053443 -1.350928 0.348905 0.141989 -6.611509 -0.133060 -1.365154 1.143003 2.666539 -1.027273 -8.796193 0.000000 0.000000 0.000000 19.728797 -13.801786 4.265943 23.299647 -36.310705 -7.797452 41.178738 -12.082892 -4.107006 0.000000 0.000000 0.000000 -25.875916 13.468401 3.269140 -24.654389 30.035886 -6.054490 -27.482324 5.473887 -0.453254 0.000000 0.000000 0.000000 
0.003565 0.961607 -0.003636 -1.572972 6.255587 3.113911 -0.454060 -0.012841 -0.316196 3.342472 -0.099056 -3.687401 -3.291460 0.009277 11.967725 0.000000 0.000000 0.000000 0.331578 0.356766 -3.422522 -2.628639 0.415629 1.894716 -3.276104 -11.507590 20.817945 0.000000 0.000000 0.000000 -0.828118 0.033233 -0.674107 0.599126 0.099462 -7.789966 -0.554030 -1.066372 2.041960 2.889852 -1.242011 -8.074295 0.000000 0.000000 0.000000 19.845896 -15.032151 4.498833 23.991221 -35.456477 -7.803525 41.155426 -12.404449 -4.307974 0.000000 0.000000 0.000000 -25.460146 12.736232 3.022802 -25.241115 31.381055 -6.447508 -29.238440 4.664029 -0.283008 0.000000 0.000000 0.000000 
0.004059 0.961428 -0.004133 -1.712834 6.953932 3.036900 -0.700420 -0.036356 -0.653519 4.090409 -0.181376 -3.176312 -3.538476 -0.426753 11.715917 0.000000 0.000000 0.000000 0.368901 0.331381 -3.158277 -2.477736 0.395141 1.846636 -3.340866 -11.449117 20.513736 0.000000 0.000000 0.000000 -0.799913 0.027421 -0.511592 0.661075 0.044453 -6.834557 -0.070871 -1.633440 1.283569 2.184137 -0.727958 -8.409241 0.000000 0.000000 0.000000 19.275244 -14.507433 4.418050 24.472986 -36.635059 -8.250772 41.596119 -11.348312 -3.934607 0.000000 0.000000 0.000000 -26.535707 13.678465 3.191986 -25.399716 30.883785 -6.400499 -29.049316 3.573578 -0.041577 0.000000 0.000000 0.000000 
0.004306 0.961129 -0.004506 -1.715624 7.136080 2.837109 -0.491454 -0.038372 -0.617658 3.723241 -0.169629 -2.928275 -3.598148 -0.588022 11.546523 0.000000 0.000000 0.000000 0.375887 0.314805 -2.994614 -2.509644 0.424629 2.287819 -3.264127 -11.189655 19.618458 0.000000 0.000000 0.000000 -0.859881 0.015668 -0.123759 0.914357 -0.034964 -7.228414 -0.129438 -1.611137 1.702524 2.168949 -0.685088 -8.657058 0.000000 0.000000 0.000000 19.273854 -15.154780 4.520522 24.940072 -36.465053 -8.341376 41.617941 -10.681147 -3.733459 0.000000 0.000000 0.000000 -26.404791 13.903057 3.162160 -25.619257 30.883467 -6.408158 -29.677563 3.699591 -0.071308 0.000000 0.000000 0.000000 
0.004359 0.960992 -0.004799 -1.703981 7.301470 2.920656 -0.352537 -0.064233 -0.872647 3.471209 -0.163669 -2.705774 -3.658360 -0.709172 11.469460 0.000000 0.000000 0.000000 0.249852 0.303036 -2.887745 -2.329290 0.407751 2.426184 -3.087811 -10.734000 18.482346 0.000000 0.000000 0.000000 -0.829981 0.012200 -0.020773 1.072769 -0.110262 -6.945590 -0.125905 -1.621126 1.188736 1.758759 -0.379620 -8.815220 0.000000 0.000000 0.000000 18.747353 -15.161677 4.570507 25.488669 -37.123491 -8.718357 41.552473 -10.320206 -3.587233 0.000000 0.000000 0.000000 -25.846825 13.921057 3.220715 -25.850160 31.563130 -6.662971 -30.535962 3.715937 -0.068345 0.000000 0.000000 0.000000 
0.004154 0.961180 -0.005022 -1.697341 7.159512 2.956170 -0.127120 -0.088030 -1.082072 3.059494 -0.150784 -2.402332 -3.590306 -0.610716 11.479487 0.000000 0.000000 0.000000 0.268452 0.306052 -2.917824 -2.420948 0.440641 2.809281 -2.785403 -10.109742 17.444484 0.000000 0.000000 0.000000 -0.801110 0.007807 0.108414 1.043898 -0.096514 -7.033305 0.104784 -1.699930 1.302762 1.277284 -0.065626 -8.837053 0.000000 0.000000 0.000000 17.960762 -15.303390 4.582289 26.495943 -37.012480 -8.901034 41.196474 -9.815888 -3.350427 0.000000 0.000000 0.000000 -25.142631 14.190434 3.326753 -26.109746 32.021039 -6.903771 -31.603232 3.812049 -0.115983 0.000000 0.000000 0.000000 
0.003792 0.961351 -0.005215 -1.683012 6.989138 2.896687 0.111383 -0.091982 -1.065153 2.625738 -0.123056 -2.304381 -3.529576 -0.507556 11.531122 0.000000 0.000000 0.000000 0.197545 0.292433 -2.793478 -2.439077 0.439393 2.742449 -2.467465 -9.564692 17.250382 0.000000 0.000000 0.000000 -0.834497 0.002883 0.280813 1.250833 -0.175402 -7.181905 0.027611 -1.610609 1.376910 0.657741 0.347057 -8.751372 0.000000 0.000000 0.000000 17.269340 -15.457931 4.630920 27.253472 -37.205991 -9.172684 40.932594 -9.347550 -3.163383 0.000000 0.000000 0.000000 -24.206323 14.760921 3.448652 -26.047507 32.453387 -7.027560 -32.846671 4.067239 -0.193558 0.000000 0.000000 0.000000 
0.003393 0.961134 -0.005425 -1.668650 6.824283 3.007709 0.244298 -0.109548 -1.236639 2.381192 -0.109705 -2.204392 -3.432560 -0.394285 11.478610 0.000000 0.000000 0.000000 0.127093 0.302586 -2.899849 -2.420322 0.426466 2.560211 -2.293768 -9.315228 17.395794 0.000000 0.000000 0.000000 -0.769116 -0.002245 0.411156 1.147617 -0.143714 -7.050675 0.081882 -1.402130 1.094941 0.440083 0.513375 -8.891091 0.000000 0.000000 0.000000 17.147201 -15.783531 4.716717 27.949236 -37.190427 -9.372171 40.310793 -8.529655 -2.829534 0.000000 0.000000 0.000000 -23.252168 14.856503 3.526741 -25.634111 33.049665 -7.114848 -34.315336 4.055606 -0.189087 0.000000 0.000000 0.000000 
0.003079 0.960866 -0.005651 -1.727524 6.368957 3.105861 0.401950 -0.112683 -1.232498 2.179044 -0.088229 -2.338475 -3.198940 -0.080235 11.441713 0.000000 0.000000 0.000000 0.061796 0.320175 -3.083862 -2.412601 0.420616 2.490488 -1.842038 -8.623073 17.436725 0.000000 0.000000 0.000000 -0.487097 -0.015922 0.645524 1.036771 -0.120309 -6.790820 0.016865 -1.092990 0.368221 0.072319 0.727078 -8.455939 0.000000 0.000000 0.000000 17.075478 -16.038707 4.802701 28.292082 -37.136812 -9.455610 39.448223 -8.074111 -2.589730 0.000000 0.000000 0.000000 -22.315962 15.332114 3.697247 -25.496575 33.349894 -7.182129 -35.005840 4.442055 -0.285158 0.000000 0.000000 0.000000 
0.002983 0.960638 -0.005961 -1.680478 6.067210 3.366064 0.463626 -0.137139 -1.506605 1.939747 -0.071243 -2.318489 -3.042626 0.137025 11.434258 0.000000 0.000000 0.000000 -0.123440 0.346092 -3.361385 -2.395374 0.407126 2.305708 -1.468725 -8.055438 17.560802 0.000000 0.000000 0.000000 -0.401715 -0.020915 0.736543 1.010650 -0.120859 -6.678243 0.037411 -0.942026 0.053669 -0.401959 1.063768 -8.708512 0.000000 0.000000 0.000000 16.780465 -15.823037 4.786752 28.614304 -37.216947 -9.566495 38.966367 -8.245699 -2.589149 0.000000 0.000000 0.000000 -21.823904 15.612245 3.802277 -25.660018 33.709645 -7.343935 -35.508200 4.335411 -0.254952 0.000000 0.000000 0.000000 
0.003049 0.960281 -0.006378 -1.663588 5.870505 3.551123 0.455397 -0.140217 -1.542644 1.878314 -0.052550 -2.609898 -2.946262 0.269407 11.428639 0.000000 0.000000 0.000000 -0.216976 0.369104 -3.604888 -2.495027 0.423474 2.370587 -1.095990 -7.396847 17.306881 0.000000 0.000000 0.000000 -0.235433 -0.030219 0.875804 0.937508 -0.108182 -6.399355 0.209331 -0.832154 -0.735845 -0.623854 1.182999 -8.424710 0.000000 0.000000 0.000000 16.148610 -15.838270 4.833337 28.374960 -37.154979 -9.459741 38.350776 -8.681611 -2.646259 0.000000 0.000000 0.000000 -21.228323 16.007362 3.964364 -25.679187 34.013521 -7.467966 -35.604330 4.770708 -0.370121 0.000000 0.000000 0.000000 
0.003381 0.959873 -0.006855 -1.660435 5.661884 3.773858 0.445917 -0.160756 -1.784831 1.811522 -0.047649 -2.614963 -2.813037 0.424071 11.340610 0.000000 0.000000 0.000000 -0.378033 0.390931 -3.847708 -2.398677 0.409147 2.360697 -0.845921 -6.937908 17.019527 0.000000 0.000000 0.000000 -0.100461 -0.035052 0.906424 0.909888 -0.105259 -6.305177 0.302172 -0.860775 -0.983380 -0.701718 1.254085 -8.830101 0.000000 0.000000 0.000000 15.695393 -15.734500 4.819248 27.985927 -37.025797 -9.270525 37.907528 -9.235312 -2.756660 0.000000 0.000000 0.000000 -20.731407 16.144740 4.065222 -26.270005 35.051915 -7.976621 -35.266985 4.778431 -0.379772 0.000000 0.000000 0.000000 
